<?xml version="1.0" ?><!DOCTYPE svg  PUBLIC '-//W3C//DTD SVG 1.1//EN'  'http://www.w3.org/Graphics/SVG/1.1/DTD/svg11.dtd'><svg enable-background="new 0 0 130 130" height="130px" id="Layer_1" version="1.1" viewBox="0 0 130 130" width="130px" xml:space="preserve" xmlns="http://www.w3.org/2000/svg" xmlns:xlink="http://www.w3.org/1999/xlink"><g><g><path d="M105.133,10.223l-12.82-7.344c-0.561-0.408-1.162-0.754-1.801-1.032l-0.189-0.108l-0.008,0.016    c-3.449-1.402-7.904-0.895-12.764,1.91L38.064,26.46c-10.857,6.269-19.74,21.655-19.74,34.193v45.591    c0,6.114,2.123,10.45,5.547,12.578l-0.033,0.059l14.248,8.072l8.012-13.949l31.453-18.157c10.855-6.269,19.74-21.655,19.74-34.193    V23.876L105.133,10.223z" fill="#075493"/><path d="M105.133,10.223L91.41,7.005c-0.561-0.409-3.363-0.398-4.002-0.677L86.391,5.92l-1.832-0.34    c-3.449-1.402-2.148-4.721-7.008-1.916L38.064,26.46c-10.857,6.269-19.74,21.655-19.74,34.193v45.591    c0,6.114,2.123,10.45,5.547,12.578l-0.033,0.059l14.248,8.072l8.012-13.949l31.453-18.157c10.855-6.269,19.74-21.655,19.74-34.193    V23.876L105.133,10.223z" fill="#06417C"/><path d="M19.076,54.085c-0.479,2.231-0.752,4.442-0.752,6.568v45.591c0,6.114,2.123,10.45,5.547,12.578    l-0.033,0.059l14.248,8.072l8.012-13.949l31.453-18.157c1.844-1.065,3.627-2.411,5.322-3.945L19.076,54.085z" fill="#053C68"/><g><path d="M51.635,34.329c-10.857,6.269-19.742,21.655-19.742,34.193v45.591c0,12.538,8.885,17.666,19.742,11.398     l39.484-22.796c10.857-6.269,19.742-21.655,19.742-34.193V22.932c0-12.538-8.885-17.666-19.742-11.398L51.635,34.329z" fill="#055BAF"/><path d="M42.865,129h-0.002c-7.158,0-11.783-5.844-11.783-14.887V68.522c0-12.829,9.037-28.485,20.146-34.897     l39.486-22.796c3.201-1.848,6.289-2.784,9.178-2.784c7.158,0,11.785,5.844,11.785,14.887v45.591     c0,12.829-9.039,28.485-20.148,34.897l-39.486,22.796C48.84,128.063,45.754,129,42.865,129z M99.891,9.674     c-2.6,0-5.414,0.863-8.363,2.564L52.041,35.033c-10.66,6.156-19.334,21.179-19.334,33.489v45.591     c0,8.178,3.891,13.259,10.156,13.259h0.002c2.6,0,5.412-0.864,8.361-2.565l39.486-22.795     c10.66-6.155,19.334-21.179,19.334-33.489V22.932C110.047,14.754,106.156,9.674,99.891,9.674z" fill="#055BAF"/></g></g><g><g enable-background="new    "><g><path d="M99.748,44.971l-8.955,5.172c1.459,1.147,1.744,4.548,1.75,6.818c0.039,13.816-9.727,30.7-21.764,37.65      c-12.025,6.94-21.854,1.373-21.895-12.443c-0.006-2.271,0.377-6.106,1.549-8.726l-8.971,5.181l0.109,38.641      c0.004,1.438,1.01,2.011,2.246,1.298l53.807-31.066c1.236-0.714,2.236-2.446,2.23-3.884L99.748,44.971" fill="#FFFCF3"/><path d="M87.385,29.211c-0.686,0.835-1.146,1.945-1.143,2.909l0.02,7.734c0.004,1,0.504,1.579,1.229,1.587      l-0.035-12.184L87.385,29.211" fill="#EDA71D"/><path d="M87.455,29.258l0.035,12.184c0.305,0.003,0.652-0.093,1.02-0.306l6.73-3.887      c0.633-0.364,1.201-0.994,1.607-1.711L87.455,29.258" fill="#EF8A1B"/><path d="M95.203,24.369l-6.73,3.886c-0.396,0.229-0.766,0.561-1.088,0.956l0.07,0.047l9.393,6.28      c0.389-0.689,0.627-1.46,0.625-2.154l-0.023-7.735C97.445,24.229,96.441,23.656,95.203,24.369" fill="#EA6F1C"/><path d="M60.984,63.93c-2.52,4.325-4.072,9.204-4.061,13.596c0.025,8.757,6.211,12.262,13.828,7.865      c3.83-2.211,7.285-5.988,9.779-10.309l-0.854-0.487c-2.301,3.988-5.482,7.469-9.002,9.501      c-7.051,4.071-12.77,0.796-12.793-7.307c-0.012-4.042,1.406-8.529,3.705-12.515L60.984,63.93" fill="#5AA6D1"/><path d="M70.662,53.766c-3.781,2.184-7.197,5.904-9.678,10.164l0.604,0.345c2.297-3.982,5.48-7.464,9.004-9.498      c7.037-4.062,12.77-0.795,12.793,7.29c0.01,4.051-1.406,8.542-3.707,12.528l0.854,0.487c2.477-4.294,4-9.124,3.988-13.487      C84.494,52.874,78.295,49.358,70.662,53.766" fill="#4285B2"/><path d="M70.592,54.776c-3.523,2.034-6.707,5.516-9.004,9.498c-2.299,3.985-3.717,8.473-3.705,12.515      c0.023,8.103,5.742,11.378,12.793,7.307c3.52-2.032,6.701-5.513,9.002-9.501c2.301-3.986,3.717-8.478,3.707-12.528      c0.021,8.101-5.672,17.966-12.709,22.029l-0.016-5.247c-3.068,1.772-5.746,1.369-7.154-0.699      c-0.008-0.008-0.014-0.017-0.02-0.025c-0.023-0.032-0.045-0.068-0.068-0.102c-0.014-0.023-0.027-0.046-0.041-0.068      c-0.014-0.023-0.027-0.046-0.043-0.069c-0.016-0.028-0.033-0.059-0.049-0.087c-0.012-0.021-0.023-0.043-0.035-0.061      c-0.02-0.037-0.039-0.071-0.057-0.11c-0.008-0.012-0.016-0.027-0.023-0.044c-0.02-0.037-0.037-0.076-0.057-0.115      c-0.008-0.016-0.016-0.032-0.025-0.051c-0.018-0.041-0.035-0.081-0.055-0.122c-0.006-0.015-0.01-0.027-0.016-0.04      c-0.02-0.045-0.037-0.089-0.055-0.133c-0.004-0.014-0.012-0.027-0.018-0.043c-0.018-0.047-0.035-0.091-0.053-0.138      c-0.002-0.015-0.01-0.028-0.014-0.042c-0.016-0.043-0.029-0.089-0.045-0.132c-0.006-0.02-0.014-0.04-0.02-0.059      c-0.014-0.044-0.025-0.087-0.039-0.131c-0.006-0.02-0.012-0.039-0.018-0.06c-0.012-0.042-0.023-0.084-0.033-0.128      c-0.008-0.021-0.014-0.043-0.02-0.065c-0.012-0.045-0.021-0.089-0.033-0.133c-0.004-0.022-0.01-0.045-0.016-0.066      c-0.008-0.042-0.018-0.083-0.025-0.126c-0.006-0.026-0.01-0.054-0.018-0.081c-0.008-0.041-0.016-0.084-0.023-0.127      c-0.004-0.026-0.008-0.052-0.014-0.077c-0.008-0.044-0.014-0.089-0.02-0.133c-0.006-0.026-0.01-0.051-0.012-0.077      c-0.008-0.045-0.014-0.092-0.02-0.139c-0.004-0.023-0.006-0.051-0.012-0.077c-0.004-0.048-0.008-0.097-0.014-0.144      c-0.002-0.024-0.006-0.049-0.008-0.073c-0.006-0.056-0.008-0.11-0.014-0.166c0-0.018-0.004-0.034-0.004-0.054      c-0.006-0.065-0.008-0.129-0.012-0.194c-0.002-0.011-0.002-0.021-0.002-0.032c-0.008-0.153-0.012-0.31-0.012-0.466      c0-0.003,0-0.003,0-0.005v-0.002c-0.002-0.035,0-0.066,0-0.1c0-0.044,0-0.085,0-0.126c0.002-0.071,0.004-0.144,0.008-0.215      c0-0.003,0-0.007,0-0.012c0.107-2.905,1.311-6.113,3.137-8.806c0.02-0.029,0.039-0.058,0.059-0.088      c0.029-0.039,0.057-0.081,0.086-0.122c0.037-0.054,0.074-0.106,0.113-0.159c0.01-0.016,0.021-0.031,0.033-0.049      c0.709-0.99,1.482-1.871,2.285-2.624c0.004-0.003,0.006-0.005,0.008-0.009c0.057-0.052,0.115-0.105,0.172-0.156      c0.012-0.012,0.023-0.02,0.037-0.03c0.051-0.047,0.102-0.095,0.152-0.14c0.016-0.012,0.031-0.025,0.047-0.039      c0.049-0.043,0.096-0.082,0.143-0.125c0.02-0.014,0.037-0.028,0.055-0.044c0.047-0.038,0.094-0.078,0.141-0.116      c0.021-0.018,0.043-0.035,0.062-0.051c0.041-0.035,0.086-0.068,0.127-0.103c0.023-0.02,0.051-0.037,0.074-0.058      c0.041-0.033,0.084-0.064,0.127-0.096c0.023-0.02,0.049-0.037,0.074-0.059c0.041-0.03,0.082-0.059,0.123-0.09      c0.025-0.019,0.051-0.035,0.074-0.057c0.047-0.029,0.092-0.063,0.137-0.095c0.021-0.015,0.043-0.031,0.066-0.044      c0.047-0.033,0.096-0.069,0.145-0.101c0.02-0.013,0.035-0.026,0.055-0.036c0.055-0.037,0.109-0.073,0.166-0.109      c0.014-0.008,0.025-0.015,0.039-0.023c0.066-0.043,0.135-0.085,0.201-0.126l0.002-0.001c0.068-0.042,0.137-0.083,0.205-0.123      c0.002,0,0.002,0,0.002,0c0.002-0.002,0.002-0.002,0.002-0.002L70.592,54.776" fill="#13D1BA"/><path d="M70.592,54.776l0.016,5.246c0.027-0.014,0.053-0.031,0.078-0.045c0.039-0.021,0.078-0.043,0.117-0.064      c4.365-2.405,7.898-0.393,8.014,4.565c0,0.045,0.002,0.089,0.002,0.135c0,0.028,0,0.058,0,0.088v0.003      c0,0.08,0,0.16-0.002,0.242l0,0c0,0.08-0.002,0.159-0.006,0.24c0,0.013-0.004,0.029-0.004,0.046      c0,0.064-0.006,0.129-0.008,0.194c-0.002,0.021-0.004,0.047-0.004,0.068c-0.006,0.055-0.01,0.112-0.014,0.171      c-0.002,0.028-0.004,0.058-0.008,0.087c-0.002,0.052-0.008,0.105-0.014,0.157c-0.004,0.032-0.008,0.065-0.012,0.101      c-0.006,0.046-0.008,0.095-0.014,0.14c-0.004,0.037-0.01,0.073-0.016,0.107c-0.004,0.048-0.012,0.095-0.018,0.141      c-0.004,0.038-0.01,0.076-0.016,0.11c-0.006,0.048-0.012,0.093-0.02,0.139c-0.006,0.036-0.012,0.068-0.018,0.105      c-0.01,0.05-0.016,0.099-0.025,0.148c-0.006,0.034-0.012,0.069-0.02,0.104c-0.006,0.049-0.016,0.094-0.025,0.144      c-0.006,0.037-0.014,0.071-0.021,0.107c-0.01,0.048-0.02,0.098-0.029,0.145c-0.008,0.037-0.016,0.072-0.021,0.109      c-0.012,0.051-0.023,0.101-0.035,0.149c-0.006,0.032-0.014,0.063-0.021,0.094c-0.014,0.056-0.025,0.114-0.041,0.171      c-0.008,0.027-0.012,0.055-0.02,0.083c-0.016,0.058-0.029,0.115-0.045,0.173c-0.008,0.025-0.014,0.051-0.02,0.076      c-0.018,0.062-0.033,0.123-0.053,0.183c-0.006,0.024-0.012,0.049-0.02,0.073c-0.018,0.06-0.035,0.123-0.053,0.186      c-0.008,0.021-0.016,0.047-0.023,0.07c-0.016,0.058-0.035,0.117-0.053,0.176c-0.01,0.031-0.02,0.061-0.031,0.092      c-0.014,0.048-0.029,0.101-0.047,0.149c-0.014,0.04-0.025,0.076-0.039,0.115c-0.016,0.044-0.029,0.087-0.045,0.129      c-0.018,0.051-0.033,0.099-0.051,0.147c-0.01,0.028-0.021,0.058-0.029,0.086c-0.025,0.066-0.051,0.132-0.074,0.197      c-0.006,0.013-0.01,0.023-0.014,0.035c-1.393,3.688-4.062,7.181-7.133,8.953l0.016,5.247      c7.037-4.063,12.73-13.929,12.709-22.029C83.361,53.981,77.629,50.715,70.592,54.776" fill="#0FAAA6"/><path d="M63.506,78.149c1.408,2.068,4.086,2.472,7.154,0.699v-0.017c0,0.002-0.004,0.002-0.006,0.005      c-2.094,1.209-4.189,1.496-5.789,0.581C64.32,79.107,63.865,78.679,63.506,78.149 M63.418,78.022      c0.023,0.033,0.045,0.069,0.068,0.102C63.463,78.092,63.441,78.055,63.418,78.022 M63.334,77.885      c0.016,0.023,0.029,0.046,0.043,0.069C63.363,77.931,63.35,77.908,63.334,77.885 M63.25,77.737      c0.012,0.018,0.023,0.039,0.035,0.061C63.273,77.776,63.262,77.755,63.25,77.737 M63.17,77.583      c0.008,0.017,0.016,0.032,0.023,0.044C63.186,77.615,63.178,77.6,63.17,77.583 M63.088,77.417      c0.01,0.019,0.018,0.035,0.025,0.051C63.105,77.452,63.098,77.436,63.088,77.417 M63.018,77.255      c0.006,0.013,0.01,0.025,0.016,0.04C63.027,77.28,63.023,77.268,63.018,77.255 M62.945,77.079      c0.006,0.016,0.014,0.029,0.018,0.043C62.959,77.108,62.951,77.094,62.945,77.079 M62.879,76.899      c0.004,0.014,0.012,0.027,0.014,0.042C62.891,76.927,62.883,76.913,62.879,76.899 M62.814,76.709      c0.006,0.019,0.014,0.039,0.02,0.059C62.828,76.748,62.82,76.728,62.814,76.709 M62.758,76.519      c0.006,0.021,0.012,0.04,0.018,0.06C62.77,76.559,62.764,76.539,62.758,76.519 M62.705,76.325      c0.006,0.022,0.012,0.044,0.02,0.065C62.717,76.369,62.711,76.348,62.705,76.325 M62.656,76.126      c0.006,0.021,0.012,0.044,0.016,0.066C62.668,76.17,62.662,76.147,62.656,76.126 M62.613,75.919      c0.008,0.027,0.012,0.055,0.018,0.081C62.625,75.974,62.621,75.946,62.613,75.919 M62.576,75.715      c0.006,0.025,0.01,0.051,0.014,0.077C62.586,75.766,62.582,75.74,62.576,75.715 M62.545,75.505      c0.002,0.026,0.006,0.051,0.012,0.077C62.551,75.556,62.547,75.531,62.545,75.505 M62.514,75.289      c0.006,0.026,0.008,0.054,0.012,0.077C62.521,75.343,62.52,75.315,62.514,75.289 M62.492,75.072      c0.002,0.024,0.006,0.049,0.008,0.073C62.498,75.121,62.494,75.097,62.492,75.072 M62.475,74.853      c0,0.02,0.004,0.036,0.004,0.054C62.479,74.889,62.475,74.872,62.475,74.853 M62.461,74.626c0,0.012,0,0.021,0.002,0.032      C62.461,74.647,62.461,74.638,62.461,74.626 M62.449,74.153v0.002V74.153" fill="#02EFDA"/><path d="M77.793,69.896c-0.357,0.944-0.811,1.899-1.354,2.84c-1.592,2.76-3.684,4.887-5.779,6.097v0.017      C73.73,77.076,76.4,73.583,77.793,69.896 M77.881,69.663c-0.025,0.066-0.051,0.131-0.074,0.197      C77.83,69.795,77.855,69.729,77.881,69.663 M77.961,69.43c-0.018,0.051-0.033,0.101-0.051,0.147      C77.928,69.528,77.943,69.48,77.961,69.43 M78.045,69.186c-0.014,0.039-0.025,0.076-0.039,0.115      C78.02,69.262,78.031,69.226,78.045,69.186 M78.123,68.944c-0.01,0.031-0.02,0.061-0.031,0.092      C78.104,69.005,78.113,68.976,78.123,68.944 M78.199,68.698c-0.008,0.021-0.016,0.047-0.023,0.07      C78.184,68.745,78.191,68.72,78.199,68.698 M78.271,68.439c-0.006,0.024-0.012,0.049-0.02,0.073      C78.26,68.488,78.266,68.464,78.271,68.439 M78.344,68.181c-0.008,0.025-0.014,0.051-0.02,0.076      C78.33,68.231,78.336,68.206,78.344,68.181 M78.408,67.925c-0.008,0.027-0.012,0.055-0.02,0.083      C78.396,67.979,78.4,67.952,78.408,67.925 M78.471,67.66c-0.006,0.032-0.014,0.063-0.021,0.094      C78.457,67.724,78.465,67.692,78.471,67.66 M78.527,67.401c-0.008,0.037-0.016,0.072-0.021,0.109      C78.512,67.474,78.52,67.438,78.527,67.401 M78.578,67.149c-0.006,0.037-0.014,0.071-0.021,0.107      C78.564,67.221,78.572,67.187,78.578,67.149 M78.623,66.901c-0.006,0.034-0.012,0.069-0.02,0.104      C78.611,66.971,78.617,66.936,78.623,66.901 M78.666,66.647c-0.006,0.036-0.012,0.071-0.018,0.105      C78.654,66.716,78.66,66.684,78.666,66.647 M78.701,66.398c-0.004,0.038-0.01,0.076-0.016,0.11      C78.691,66.475,78.697,66.437,78.701,66.398 M78.734,66.15c-0.004,0.037-0.01,0.073-0.016,0.107      C78.725,66.224,78.73,66.188,78.734,66.15 M78.76,65.91c-0.004,0.032-0.008,0.065-0.012,0.101      C78.752,65.976,78.756,65.942,78.76,65.91 M78.781,65.666c-0.002,0.028-0.004,0.058-0.008,0.087      C78.777,65.724,78.779,65.694,78.781,65.666 M78.799,65.427c-0.002,0.021-0.004,0.047-0.004,0.068      C78.795,65.474,78.797,65.448,78.799,65.427 M78.811,65.187c-0.002,0.013-0.004,0.028-0.004,0.046      C78.807,65.216,78.811,65.199,78.811,65.187 M78.816,64.946L78.816,64.946L78.816,64.946 M78.818,64.701      c0,0.001,0,0.003,0,0.003V64.701" fill="#02E1CF"/><path d="M62.449,74.054c0,0.033-0.002,0.064,0,0.1C62.447,74.118,62.449,74.087,62.449,74.054 M62.457,73.713      c-0.004,0.071-0.006,0.144-0.008,0.215C62.451,73.856,62.453,73.785,62.457,73.713 M65.594,64.896      c-1.826,2.692-3.029,5.9-3.137,8.806c0.088-2.31,0.877-4.993,2.373-7.581C65.07,65.694,65.328,65.286,65.594,64.896       M65.738,64.686c-0.029,0.041-0.057,0.083-0.086,0.122C65.682,64.769,65.709,64.727,65.738,64.686 M65.885,64.478      c-0.012,0.018-0.023,0.033-0.033,0.049C65.861,64.509,65.873,64.495,65.885,64.478 M68.178,61.845      c-0.002,0.004-0.004,0.006-0.008,0.009C68.174,61.851,68.176,61.849,68.178,61.845 M68.387,61.658      c-0.014,0.011-0.025,0.019-0.037,0.03C68.361,61.677,68.373,61.669,68.387,61.658 M68.586,61.479      c-0.016,0.014-0.031,0.027-0.047,0.039C68.555,61.507,68.57,61.493,68.586,61.479 M68.783,61.311      c-0.018,0.016-0.035,0.03-0.055,0.044C68.748,61.341,68.766,61.325,68.783,61.311 M68.986,61.144      c-0.02,0.016-0.041,0.033-0.062,0.051C68.943,61.177,68.967,61.159,68.986,61.144 M69.188,60.983      c-0.023,0.021-0.051,0.038-0.074,0.058C69.137,61.021,69.164,61.004,69.188,60.983 M69.389,60.829      c-0.025,0.021-0.051,0.039-0.074,0.059C69.338,60.868,69.363,60.849,69.389,60.829 M69.586,60.683      c-0.023,0.021-0.049,0.038-0.074,0.057C69.537,60.72,69.562,60.704,69.586,60.683 M69.789,60.544      c-0.023,0.013-0.045,0.029-0.066,0.044C69.744,60.573,69.766,60.557,69.789,60.544 M69.988,60.407      c-0.02,0.01-0.035,0.023-0.055,0.036C69.953,60.431,69.969,60.417,69.988,60.407 M70.193,60.274      c-0.014,0.009-0.025,0.016-0.039,0.023C70.168,60.29,70.18,60.281,70.193,60.274 M70.396,60.147l-0.002,0.001      C70.396,60.147,70.396,60.147,70.396,60.147 M70.607,60.022c0,0-0.002,0-0.002,0.002c0-0.002,0-0.002,0-0.002" fill="#02E1CF"/><path d="M78.818,64.613c0,0.028,0,0.06,0,0.088l0,0C78.818,64.671,78.818,64.642,78.818,64.613 M70.803,59.913      c2.029-1.115,4.045-1.36,5.598-0.475c1.555,0.885,2.359,2.738,2.416,5.04C78.701,59.521,75.168,57.508,70.803,59.913       M70.607,60.022c0.027-0.014,0.053-0.031,0.078-0.045C70.66,59.991,70.635,60.009,70.607,60.022" fill="#01C7C1"/><path d="M77.807,69.86c-0.006,0.013-0.01,0.023-0.014,0.035C77.797,69.884,77.801,69.873,77.807,69.86       M77.91,69.577c-0.01,0.027-0.021,0.058-0.029,0.086C77.889,69.635,77.9,69.605,77.91,69.577 M78.006,69.301      c-0.016,0.044-0.029,0.087-0.045,0.129C77.977,69.388,77.99,69.345,78.006,69.301 M78.092,69.036      c-0.014,0.048-0.031,0.101-0.047,0.149C78.062,69.137,78.078,69.084,78.092,69.036 M78.176,68.769      c-0.016,0.058-0.035,0.117-0.053,0.176C78.141,68.886,78.16,68.826,78.176,68.769 M78.252,68.513      c-0.018,0.062-0.035,0.123-0.053,0.186C78.217,68.636,78.234,68.572,78.252,68.513 M78.324,68.257      c-0.018,0.062-0.033,0.123-0.053,0.183C78.291,68.38,78.307,68.318,78.324,68.257 M78.389,68.008      c-0.016,0.058-0.029,0.115-0.045,0.173C78.359,68.123,78.373,68.065,78.389,68.008 M78.449,67.754      c-0.014,0.056-0.025,0.114-0.041,0.171C78.424,67.868,78.436,67.81,78.449,67.754 M78.506,67.511      c-0.012,0.051-0.023,0.101-0.035,0.149C78.482,67.611,78.494,67.562,78.506,67.511 M78.557,67.257      c-0.01,0.048-0.02,0.098-0.029,0.145C78.537,67.354,78.547,67.305,78.557,67.257 M78.604,67.006      c-0.006,0.049-0.016,0.094-0.025,0.144C78.588,67.1,78.598,67.055,78.604,67.006 M78.648,66.753      c-0.01,0.05-0.016,0.099-0.025,0.148C78.633,66.852,78.639,66.803,78.648,66.753 M78.686,66.509      c-0.006,0.048-0.012,0.093-0.02,0.139C78.674,66.602,78.68,66.557,78.686,66.509 M78.719,66.258      c-0.004,0.048-0.012,0.095-0.018,0.141C78.707,66.353,78.715,66.306,78.719,66.258 M78.748,66.011      c-0.006,0.046-0.008,0.095-0.014,0.14C78.74,66.105,78.742,66.057,78.748,66.011 M78.773,65.753      c-0.006,0.052-0.008,0.105-0.014,0.157C78.766,65.858,78.771,65.805,78.773,65.753 M78.795,65.495      c-0.006,0.055-0.01,0.115-0.014,0.171C78.785,65.607,78.789,65.55,78.795,65.495 M78.807,65.232      c0,0.064-0.006,0.129-0.008,0.194C78.801,65.361,78.807,65.297,78.807,65.232 M78.816,64.946c0,0.08-0.002,0.159-0.006,0.24      C78.814,65.105,78.816,65.026,78.816,64.946 M78.818,64.704c0,0.081,0,0.162-0.002,0.242      C78.818,64.864,78.818,64.784,78.818,64.704 M78.816,64.479c0,0.045,0.002,0.089,0.002,0.135      C78.818,64.567,78.816,64.523,78.816,64.479" fill="#07CBBF"/><path d="M70.635,69.426l-5.77,9.992c-0.545-0.311-1-0.739-1.359-1.269c0.359,0.529,0.814,0.958,1.359,1.269      c1.6,0.915,3.695,0.628,5.789-0.581c0.002-0.003,0.006-0.003,0.006-0.005L70.635,69.426" fill="#01F6E4"/><path d="M75.188,73.073c-0.596,0.344-1.076,0.069-1.08-0.615c-0.002-0.684,0.477-1.512,1.074-1.857      c0.58-0.336,1.076-0.068,1.078,0.616C76.262,71.9,75.77,72.738,75.188,73.073 M72.91,70.608      c-0.219,0.125-0.408,0.033-0.408-0.234c-0.002-0.251,0.188-0.56,0.404-0.686c0.219-0.125,0.395-0.025,0.395,0.226      C73.301,70.181,73.127,70.481,72.91,70.608 M78.818,64.701l-8.184,4.725l0.025,9.406c2.096-1.21,4.188-3.337,5.779-6.097      c0.543-0.94,0.996-1.896,1.354-2.84c0.004-0.012,0.008-0.022,0.014-0.035c0.023-0.066,0.049-0.131,0.074-0.197      c0.008-0.028,0.02-0.059,0.029-0.086c0.018-0.047,0.033-0.097,0.051-0.147c0.016-0.042,0.029-0.085,0.045-0.129      c0.014-0.039,0.025-0.076,0.039-0.115c0.016-0.049,0.033-0.102,0.047-0.149c0.012-0.031,0.021-0.061,0.031-0.092      c0.018-0.059,0.037-0.118,0.053-0.176c0.008-0.023,0.016-0.049,0.023-0.07c0.018-0.062,0.035-0.123,0.053-0.186      c0.008-0.024,0.014-0.049,0.02-0.073c0.02-0.06,0.035-0.121,0.053-0.183c0.006-0.025,0.012-0.051,0.02-0.076      c0.016-0.058,0.029-0.115,0.045-0.173c0.008-0.028,0.012-0.056,0.02-0.083c0.016-0.057,0.027-0.115,0.041-0.171      c0.008-0.03,0.016-0.062,0.021-0.094c0.012-0.049,0.023-0.099,0.035-0.149c0.006-0.037,0.014-0.072,0.021-0.109      c0.01-0.047,0.02-0.097,0.029-0.145c0.008-0.036,0.016-0.07,0.021-0.107c0.01-0.05,0.02-0.095,0.025-0.144      c0.008-0.035,0.014-0.07,0.02-0.104c0.01-0.05,0.016-0.099,0.025-0.148c0.006-0.034,0.012-0.069,0.018-0.105      c0.008-0.046,0.014-0.091,0.02-0.139c0.006-0.034,0.012-0.072,0.016-0.11c0.006-0.046,0.014-0.093,0.018-0.141      c0.006-0.034,0.012-0.07,0.016-0.107c0.006-0.045,0.008-0.094,0.014-0.14c0.004-0.035,0.008-0.068,0.012-0.101      c0.006-0.052,0.008-0.105,0.014-0.157c0.004-0.029,0.006-0.059,0.008-0.087c0.004-0.056,0.008-0.116,0.014-0.171      c0-0.021,0.002-0.047,0.004-0.068c0.002-0.065,0.008-0.13,0.008-0.194c0-0.018,0.002-0.033,0.004-0.046      c0.004-0.081,0.006-0.16,0.006-0.24l0,0c0.002-0.08,0.002-0.161,0.002-0.242C78.818,64.704,78.818,64.702,78.818,64.701" fill="#01EDDD"/><path d="M76.4,59.438l-5.766,9.987l8.184-4.725c0-0.028,0-0.06,0-0.088c0-0.046-0.002-0.09-0.002-0.135      C78.76,62.177,77.955,60.323,76.4,59.438" fill="#00DDD2"/><path d="M63.486,78.124c0.006,0.009,0.012,0.018,0.02,0.025C63.498,78.142,63.492,78.133,63.486,78.124       M63.377,77.954c0.014,0.022,0.027,0.045,0.041,0.068C63.404,77.999,63.391,77.977,63.377,77.954 M63.285,77.798      c0.016,0.028,0.033,0.059,0.049,0.087C63.318,77.856,63.301,77.826,63.285,77.798 M63.193,77.627      c0.018,0.039,0.037,0.073,0.057,0.11C63.23,77.7,63.211,77.663,63.193,77.627 M63.113,77.468      c0.02,0.039,0.037,0.078,0.057,0.115C63.15,77.546,63.133,77.507,63.113,77.468 M63.033,77.295      c0.02,0.041,0.037,0.081,0.055,0.122C63.07,77.376,63.053,77.336,63.033,77.295 M62.963,77.122      c0.018,0.044,0.035,0.088,0.055,0.133C62.998,77.21,62.98,77.166,62.963,77.122 M62.893,76.941      c0.018,0.047,0.035,0.091,0.053,0.138C62.928,77.034,62.91,76.988,62.893,76.941 M62.834,76.768      c0.016,0.043,0.029,0.089,0.045,0.132C62.863,76.854,62.85,76.812,62.834,76.768 M62.775,76.578      c0.014,0.044,0.025,0.087,0.039,0.131C62.801,76.665,62.789,76.622,62.775,76.578 M62.725,76.391      c0.01,0.044,0.021,0.086,0.033,0.128C62.746,76.477,62.734,76.435,62.725,76.391 M62.672,76.192      c0.012,0.044,0.021,0.088,0.033,0.133C62.693,76.28,62.684,76.236,62.672,76.192 M62.631,76      c0.008,0.043,0.018,0.084,0.025,0.126C62.648,76.084,62.639,76.043,62.631,76 M62.59,75.792      c0.008,0.043,0.016,0.086,0.023,0.127C62.605,75.878,62.598,75.835,62.59,75.792 M62.557,75.582      c0.006,0.044,0.012,0.089,0.02,0.133C62.568,75.671,62.562,75.626,62.557,75.582 M62.525,75.366      c0.006,0.047,0.012,0.094,0.02,0.139C62.537,75.46,62.531,75.413,62.525,75.366 M62.5,75.146      c0.006,0.047,0.01,0.096,0.014,0.144C62.51,75.241,62.506,75.192,62.5,75.146 M62.479,74.906      c0.006,0.056,0.008,0.11,0.014,0.166C62.486,75.017,62.484,74.962,62.479,74.906 M62.463,74.658      c0.004,0.065,0.006,0.129,0.012,0.194C62.469,74.787,62.467,74.724,62.463,74.658 M62.449,74.155c0,0.002,0,0.002,0,0.005      c0,0.156,0.004,0.312,0.012,0.466C62.453,74.473,62.449,74.316,62.449,74.155 M62.449,73.928c0,0.041,0,0.082,0,0.126      C62.449,74.01,62.449,73.969,62.449,73.928 M62.457,73.701c0,0.005,0,0.009,0,0.012C62.457,73.708,62.457,73.706,62.457,73.701       M65.652,64.808c-0.02,0.03-0.039,0.059-0.059,0.088C65.613,64.866,65.633,64.838,65.652,64.808 M65.852,64.526      c-0.039,0.053-0.076,0.105-0.113,0.159C65.775,64.632,65.812,64.579,65.852,64.526 M68.17,61.854      c-0.803,0.753-1.576,1.634-2.285,2.624C66.574,63.516,67.344,62.626,68.17,61.854 M68.35,61.688      c-0.057,0.051-0.115,0.104-0.172,0.156C68.234,61.793,68.293,61.739,68.35,61.688 M68.539,61.519      c-0.051,0.045-0.102,0.093-0.152,0.14C68.438,61.611,68.488,61.565,68.539,61.519 M68.729,61.354      c-0.047,0.043-0.094,0.082-0.143,0.125C68.635,61.437,68.682,61.397,68.729,61.354 M68.924,61.194      c-0.047,0.038-0.094,0.078-0.141,0.116C68.83,61.272,68.877,61.232,68.924,61.194 M69.113,61.041      c-0.041,0.034-0.086,0.067-0.127,0.103C69.027,61.108,69.072,61.075,69.113,61.041 M69.314,60.888      c-0.043,0.031-0.086,0.062-0.127,0.096C69.229,60.95,69.271,60.919,69.314,60.888 M69.512,60.739      c-0.041,0.031-0.082,0.06-0.123,0.09C69.428,60.799,69.471,60.771,69.512,60.739 M69.723,60.588      c-0.045,0.031-0.09,0.065-0.137,0.095C69.633,60.653,69.678,60.619,69.723,60.588 M69.934,60.443      c-0.049,0.031-0.098,0.067-0.145,0.101C69.836,60.511,69.885,60.475,69.934,60.443 M70.154,60.298      c-0.057,0.036-0.111,0.072-0.166,0.109C70.043,60.37,70.098,60.334,70.154,60.298 M70.395,60.148      c-0.066,0.041-0.135,0.083-0.201,0.126C70.26,60.231,70.328,60.189,70.395,60.148 M70.602,60.024      c-0.068,0.04-0.137,0.081-0.205,0.123c0.07-0.042,0.139-0.083,0.209-0.123C70.605,60.024,70.604,60.024,70.602,60.024" fill="#09DBC7"/><path d="M70.686,59.978c0.039-0.021,0.078-0.043,0.117-0.064C70.764,59.935,70.725,59.956,70.686,59.978" fill="#07BBB6"/><path d="M70.635,69.426l-8.186,4.728v0.002c0,0.161,0.004,0.317,0.012,0.471c0,0.012,0,0.021,0.002,0.032      c0.004,0.065,0.006,0.129,0.012,0.194c0,0.02,0.004,0.036,0.004,0.054c0.006,0.056,0.008,0.11,0.014,0.166      c0.002,0.024,0.006,0.049,0.008,0.073c0.006,0.047,0.01,0.096,0.014,0.144c0.006,0.026,0.008,0.054,0.012,0.077      c0.006,0.047,0.012,0.094,0.02,0.139c0.002,0.026,0.006,0.051,0.012,0.077c0.006,0.044,0.012,0.089,0.02,0.133      c0.006,0.025,0.01,0.051,0.014,0.077c0.008,0.043,0.016,0.086,0.023,0.127c0.008,0.027,0.012,0.055,0.018,0.081      c0.008,0.043,0.018,0.084,0.025,0.126c0.006,0.021,0.012,0.044,0.016,0.066c0.012,0.044,0.021,0.088,0.033,0.133      c0.006,0.022,0.012,0.044,0.02,0.065c0.01,0.044,0.021,0.086,0.033,0.128c0.006,0.021,0.012,0.04,0.018,0.06      c0.014,0.044,0.025,0.087,0.039,0.131c0.006,0.019,0.014,0.039,0.02,0.059c0.016,0.044,0.029,0.087,0.045,0.132      c0.004,0.014,0.012,0.027,0.014,0.042c0.018,0.047,0.035,0.093,0.053,0.138c0.006,0.015,0.014,0.029,0.018,0.043      c0.018,0.044,0.035,0.088,0.055,0.133c0.006,0.013,0.01,0.025,0.016,0.04c0.02,0.041,0.037,0.081,0.055,0.122      c0.01,0.019,0.018,0.035,0.025,0.051c0.02,0.039,0.037,0.078,0.057,0.115c0.008,0.017,0.016,0.032,0.023,0.044      c0.018,0.036,0.037,0.073,0.057,0.11c0.012,0.018,0.023,0.039,0.035,0.061c0.016,0.028,0.033,0.059,0.049,0.087      c0.016,0.023,0.029,0.046,0.043,0.069c0.014,0.022,0.027,0.045,0.041,0.068c0.023,0.032,0.045,0.069,0.068,0.102      c0.006,0.009,0.012,0.018,0.02,0.025c0.359,0.529,0.814,0.958,1.359,1.269L70.635,69.426" fill="#01F3E1"/><path d="M67.348,70.558c-1.484,0.854-2.68,0.173-2.688-1.514c-0.002-1.688,1.186-3.765,2.67-4.621      c1.467-0.847,2.664-0.148,2.668,1.54C70.004,67.649,68.814,69.709,67.348,70.558 M70.605,60.024      c-0.07,0.04-0.139,0.081-0.209,0.123c0,0,0,0-0.002,0.001c-0.066,0.041-0.135,0.083-0.201,0.126      c-0.014,0.007-0.025,0.016-0.039,0.023c-0.057,0.036-0.111,0.072-0.166,0.109c-0.02,0.01-0.035,0.023-0.055,0.036      c-0.049,0.031-0.098,0.067-0.145,0.101c-0.023,0.013-0.045,0.029-0.066,0.044c-0.045,0.031-0.09,0.065-0.137,0.095      c-0.023,0.021-0.049,0.037-0.074,0.057c-0.041,0.031-0.084,0.06-0.123,0.09c-0.025,0.02-0.051,0.039-0.074,0.059      c-0.043,0.031-0.086,0.062-0.127,0.096c-0.023,0.021-0.051,0.038-0.074,0.058c-0.041,0.034-0.086,0.067-0.127,0.103      c-0.02,0.016-0.043,0.033-0.062,0.051c-0.047,0.038-0.094,0.078-0.141,0.116c-0.018,0.015-0.035,0.03-0.055,0.044      c-0.047,0.043-0.094,0.082-0.143,0.125c-0.016,0.014-0.031,0.027-0.047,0.039c-0.051,0.047-0.102,0.093-0.152,0.14      c-0.014,0.011-0.025,0.019-0.037,0.03c-0.057,0.051-0.115,0.104-0.172,0.156c-0.002,0.004-0.004,0.006-0.008,0.009      c-0.826,0.772-1.596,1.662-2.285,2.624c-0.012,0.018-0.023,0.031-0.033,0.049c-0.039,0.053-0.076,0.105-0.113,0.159      c-0.029,0.041-0.057,0.083-0.086,0.122c-0.02,0.03-0.039,0.059-0.059,0.088c-0.266,0.391-0.523,0.799-0.764,1.225      c-1.496,2.588-2.285,5.271-2.373,7.581c0,0.005,0,0.007,0,0.012c-0.004,0.072-0.006,0.144-0.008,0.215c0,0.041,0,0.082,0,0.126      c0,0.033-0.002,0.064,0,0.1l8.186-4.728l-0.027-9.403C70.607,60.022,70.605,60.022,70.605,60.024" fill="#01E7D8"/><path d="M70.607,60.022l0.027,9.403l5.766-9.987c-1.553-0.886-3.568-0.641-5.598,0.475      c-0.039,0.021-0.078,0.043-0.117,0.064C70.66,59.991,70.635,60.009,70.607,60.022" fill="#00D2CC"/><path d="M67.33,64.423c-1.484,0.856-2.672,2.933-2.67,4.621c0.008,1.687,1.203,2.368,2.688,1.514      c1.467-0.849,2.656-2.908,2.65-4.595C69.994,64.274,68.797,63.576,67.33,64.423" fill="#F0FFFD"/><path d="M72.906,69.688c-0.217,0.126-0.406,0.435-0.404,0.686c0,0.268,0.189,0.359,0.408,0.234      c0.217-0.127,0.391-0.428,0.391-0.694C73.301,69.663,73.125,69.563,72.906,69.688" fill="#F0FFFD"/><path d="M75.182,70.601c-0.598,0.346-1.076,1.174-1.074,1.857c0.004,0.685,0.484,0.959,1.08,0.615      c0.582-0.335,1.074-1.173,1.072-1.856C76.258,70.532,75.762,70.265,75.182,70.601" fill="#F0FFFD"/><path d="M70.779,94.611c12.037-6.95,21.803-23.834,21.764-37.65c-0.006-2.271-0.291-5.671-1.75-6.818      l8.955-5.172l0.107,38.641c0.006,1.438-0.994,3.17-2.23,3.884l-53.807,31.066c-1.236,0.713-2.242,0.141-2.246-1.298      l-0.109-38.641l8.971-5.181c-1.172,2.619-1.555,6.454-1.549,8.726C48.926,95.984,58.754,101.552,70.779,94.611 M60.984,63.93      c2.48-4.26,5.896-7.98,9.678-10.164c7.633-4.407,13.832-0.892,13.857,7.829c0.012,4.363-1.512,9.193-3.988,13.487      c-2.494,4.32-5.949,8.098-9.779,10.309c-7.617,4.396-13.803,0.892-13.828-7.865C56.912,73.134,58.465,68.255,60.984,63.93       M87.385,29.211c0.322-0.396,0.691-0.728,1.088-0.956l6.73-3.886c1.238-0.713,2.242-0.14,2.246,1.279l0.023,7.735      c0.002,0.694-0.236,1.465-0.625,2.154c-0.406,0.717-0.975,1.347-1.607,1.711l-6.73,3.887c-0.367,0.213-0.715,0.309-1.02,0.306      c-0.725-0.008-1.225-0.587-1.229-1.587l-0.02-7.734C86.238,31.156,86.699,30.046,87.385,29.211 M97.865,12.509L43.17,44.087      c-4.709,2.719-8.521,9.304-8.506,14.717l0.18,62.879c0.014,5.414,3.852,7.568,8.561,4.848l54.693-31.578      c4.711-2.72,8.508-9.279,8.492-14.692l-0.178-62.881C106.396,11.968,102.576,9.789,97.865,12.509" fill="#055BAF"/></g></g></g></g></svg>