<?xml version="1.0" ?><!DOCTYPE svg  PUBLIC '-//W3C//DTD SVG 1.1//EN'  'http://www.w3.org/Graphics/SVG/1.1/DTD/svg11.dtd'><svg enable-background="new 0 0 130 130" height="130px" id="Layer_1" version="1.1" viewBox="0 0 130 130" width="130px" xml:space="preserve" xmlns="http://www.w3.org/2000/svg" xmlns:xlink="http://www.w3.org/1999/xlink"><g><g><g><path d="M105.135,10.223L92.313,2.879c-0.562-0.408-1.162-0.754-1.8-1.032l-0.191-0.108l-0.008,0.017     c-3.449-1.403-7.904-0.896-12.764,1.909L38.066,26.46c-10.857,6.269-19.742,21.655-19.742,34.193v45.591     c0,6.114,2.125,10.45,5.549,12.578l-0.033,0.059l14.246,8.072l8.014-13.949l31.451-18.157     c10.857-6.269,19.741-21.655,19.741-34.193V23.876L105.135,10.223z" fill="#1CC464"/><path d="M105.135,10.223L91.412,7.005c-0.562-0.409-3.365-0.399-4.002-0.677l-1.018-0.407L84.561,5.58     c-3.449-1.402-2.15-4.721-7.01-1.916L38.066,26.46c-10.857,6.269-19.742,21.655-19.742,34.193v45.591     c0,6.114,2.125,10.45,5.549,12.578l-0.033,0.059l14.246,8.072l8.014-13.949l31.451-18.157     c10.857-6.269,19.741-21.655,19.741-34.193V23.876L105.135,10.223z" fill="#15A054"/><path d="M19.077,54.084c-0.479,2.232-0.753,4.443-0.753,6.569v45.591c0,6.114,2.125,10.45,5.549,12.578     l-0.033,0.059l14.246,8.072l8.014-13.949l31.451-18.157c1.845-1.065,3.627-2.411,5.324-3.945L19.077,54.084z" fill="#07875C"/><g><path d="M51.636,34.329c-10.856,6.269-19.741,21.655-19.741,34.193v45.591c0,12.538,8.885,17.666,19.741,11.398      l39.485-22.796c10.857-6.269,19.74-21.655,19.74-34.193V22.932c0-12.538-8.883-17.666-19.74-11.398L51.636,34.329z" fill="#25D625"/><path d="M110.861,22.932c0-12.538-8.883-17.666-19.74-11.398L51.636,34.329      c-10.856,6.269-19.741,21.655-19.741,34.193v45.591c0,12.538,8.885,17.666,19.741,11.398" fill="#1BBF1B"/><path d="M42.866,129L42.866,129c-7.16,0-11.786-5.844-11.786-14.887V68.522c0-12.829,9.039-28.485,20.148-34.897      l39.485-22.796c3.2-1.848,6.289-2.784,9.179-2.784c7.158,0,11.783,5.844,11.783,14.887v45.591      c0,12.829-9.037,28.485-20.148,34.898l-39.484,22.795C48.842,128.063,45.756,129,42.866,129z M99.893,9.674      c-2.601,0-5.415,0.863-8.365,2.564L52.043,35.033c-10.66,6.156-19.334,21.179-19.334,33.489v45.591      c0,8.178,3.891,13.259,10.156,13.259h0.001c2.601,0,5.413-0.864,8.362-2.565l39.485-22.795      c10.66-6.155,19.334-21.179,19.334-33.489V22.932C110.048,14.754,106.156,9.674,99.893,9.674z" fill="#2AE82A"/></g></g></g><g><g enable-background="new    "><g><path d="M81.983,81.293c-1.554,0.896-3.968,1.74-8.666,2.212c-8.693,0.888-14.305-6.027-14.748-6.431      c-0.415-0.418-3.52-3.342-3.534-8.219c-0.014-4.867,2.132-8.479,3.001-10.004c0.711-1.253,1.891-2.305,3.021-2.959      c0.356-0.205,0.689-0.378,0.988-0.533c0.865-0.46,1.297-0.652,1.874,0.592c0.72,1.564,2.471,5.43,2.681,5.816      c0.208,0.377,0.418,0.934,0.129,1.762c-0.28,0.84-0.521,1.275-0.951,2.106c-0.438,0.837-0.854,1.517-1.282,2.376      c-0.398,0.774-0.846,1.607-0.344,2.32c0.51,0.682,2.256,2.935,4.812,4.078c3.309,1.465,5.986,1,6.943,0.907      c0.269-0.025,0.557-0.123,0.843-0.287c0.466-0.27,0.917-0.714,1.241-1.3c0.654-1.191,1.464-3.016,2.292-4.832      c0.396-0.88,0.865-1.416,1.369-1.706c0.242-0.142,0.493-0.224,0.747-0.262c0.798-0.135,5.025-0.186,5.899-0.183      c0.864-0.003,1.438-0.094,1.648,0.204c0.208,0.302,0.214,2.276-0.485,4.995c-0.708,2.732-3.536,6.276-5.786,8.139      C83.198,80.48,82.678,80.893,81.983,81.293 M72.137,33.938l-0.017,0.01c-16.282,9.401-29.492,32.279-29.438,51      c0.021,7.417,2.126,13.105,5.682,16.646l-3.645,14.736l11.345-10.729c4.679,0.855,10.26-0.303,16.266-3.77      c16.282-9.402,29.483-32.283,29.43-50.994C101.705,32.118,88.42,24.537,72.137,33.938" fill="#FFFFFF"/></g></g></g><path d="M72.137,33.938l-0.017,0.01c-16.282,9.401-29.492,32.279-29.438,51c0.021,7.417,2.126,13.105,5.682,16.646   l-3.645,14.736l11.345-10.729c2.205,0.403,4.616,0.341,7.172-0.181l12.865-22.283c-0.832,0.138-1.743,0.263-2.783,0.367   c-8.693,0.888-14.305-6.027-14.748-6.431c-0.415-0.418-3.52-3.342-3.534-8.219c-0.014-4.867,2.132-8.479,3.001-10.004   c0.711-1.253,1.891-2.305,3.021-2.959c0.356-0.205,0.689-0.378,0.988-0.533c0.865-0.46,1.297-0.652,1.874,0.592   c0.72,1.564,2.471,5.43,2.681,5.816c0.208,0.377,0.418,0.934,0.129,1.762c-0.28,0.84-0.521,1.275-0.951,2.106   c-0.438,0.837-0.854,1.517-1.282,2.376c-0.398,0.774-0.846,1.607-0.344,2.32c0.51,0.682,2.256,2.935,4.812,4.078   c3.309,1.465,5.986,1,6.943,0.907c0.269-0.025,0.557-0.123,0.843-0.287c0.466-0.27,0.917-0.714,1.241-1.3   c0.654-1.191,1.464-3.016,2.292-4.832c0.396-0.88,0.865-1.416,1.369-1.706c0.242-0.142,0.493-0.224,0.747-0.262   c0.422-0.071,1.806-0.119,3.144-0.147l14.753-25.553C96.42,29.818,85.254,26.365,72.137,33.938z" fill="#E9F4E4"/></g></svg>